<svg width="55" height="42" viewBox="0 0 55 42" fill="none" xmlns="http://www.w3.org/2000/svg">
<g id="Google__G__logo 1">
<g id="Group 205">
<path id="Vector" d="M39.3148 21.5157C39.3148 20.1651 39.1936 18.8664 38.9685 17.6196H21.0293V24.9962H31.2802C30.83 27.3684 29.4794 29.3771 27.4535 30.7277V35.5242H33.6352C37.2369 32.1995 39.3148 27.3165 39.3148 21.5157Z" fill="white"/>
<path id="Vector_2" d="M21.0295 40.1283C26.1723 40.1283 30.4839 38.4314 33.6354 35.5223L27.4537 30.7259C25.7567 31.8687 23.5922 32.5613 21.0295 32.5613C16.0772 32.5613 11.8694 29.2194 10.363 24.7173H4.02539V29.635C7.15955 35.8513 13.5837 40.1283 21.0295 40.1283Z" fill="white"/>
<path id="Vector_3" d="M10.3633 24.7021C9.98232 23.5592 9.75721 22.3471 9.75721 21.0831C9.75721 19.819 9.98232 18.6069 10.3633 17.4641V12.5464H4.02569C2.727 15.1091 1.98242 18.0009 1.98242 21.0831C1.98242 24.1653 2.727 27.057 4.02569 29.6198L8.96069 25.7757L10.3633 24.7021Z" fill="white"/>
<path id="Vector_4" d="M21.0295 9.61899C23.8347 9.61899 26.3281 10.5887 28.3195 12.4588L33.7739 7.0043C30.4666 3.92209 26.1723 2.03467 21.0295 2.03467C13.5837 2.03467 7.15955 6.31167 4.02539 12.5454L10.363 17.463C11.8694 12.9609 16.0772 9.61899 21.0295 9.61899Z" fill="white"/>
</g>
</g>
</svg>
