<svg width="24" height="24" viewBox="0 0 24 24" fill="none" xmlns="http://www.w3.org/2000/svg">
<g id="social">
<path id="instagram" fill-rule="evenodd" clip-rule="evenodd" d="M11.9933 4C9.82182 4 9.54871 4 8.69609 4.04673C7.85012 4.08678 7.26395 4.22028 6.76436 4.42053C6.23147 4.62078 5.77852 4.90113 5.33222 5.335C4.90591 5.80225 4.63281 6.2428 4.42631 6.77013C4.22648 7.27743 4.09326 7.86483 4.05329 8.70588C4 9.57363 4 9.84063 4 12.01C4 14.1794 4 14.4597 4.04663 15.3141C4.08659 16.1619 4.21982 16.7493 4.41965 17.2499C4.61948 17.7839 4.89925 18.2311 5.33888 18.6783C5.80516 19.0922 6.25812 19.3659 6.78435 19.5728C7.29059 19.7731 7.87677 19.9066 8.71607 19.9466C9.58202 19.9933 9.84846 20 12.02 20C14.1915 20 14.4713 20 15.3239 19.9466C16.1632 19.9066 16.7494 19.7731 17.2556 19.5728C17.7885 19.3726 18.2281 19.0922 18.6744 18.6516C19.1074 18.1977 19.3805 17.7505 19.587 17.2232C19.7868 16.7159 19.9201 16.1285 19.9534 15.2874C19.9933 14.4197 20 14.1527 20 11.9766C20 9.80058 20 9.52691 19.9534 8.67251C19.9134 7.83813 19.7802 7.25073 19.5803 6.73675C19.3805 6.20275 19.0874 5.76888 18.6478 5.32165C18.1882 4.86775 17.7552 4.60075 17.229 4.4005C16.7227 4.20025 16.1366 4.06675 15.2973 4.02003C14.438 4 14.1715 4 11.9933 4ZM11.993 5.44141C14.1246 5.44141 14.3777 5.44141 15.2237 5.48813C16.003 5.52818 16.4227 5.65501 16.7091 5.76848C17.0821 5.90198 17.3486 6.08221 17.6283 6.36923C17.9081 6.63623 18.0813 6.90323 18.2278 7.28371C18.3344 7.57073 18.461 7.99126 18.4943 8.77224C18.5409 9.61996 18.5476 9.87361 18.5476 12.0096C18.5476 14.1456 18.5476 14.3993 18.5009 15.247C18.461 16.028 18.3344 16.4485 18.2212 16.7355C18.0879 17.1093 17.9081 17.3763 17.6217 17.6567C17.3552 17.937 17.0888 18.1106 16.7091 18.2574C16.4227 18.3642 16.003 18.4911 15.2237 18.5244C14.3777 18.5712 14.1246 18.5778 11.993 18.5778C9.86146 18.5778 9.60833 18.5778 8.76237 18.5311C7.98302 18.4911 7.56337 18.3642 7.27694 18.2508C6.90392 18.1173 6.63748 17.937 6.35771 17.65C6.07794 17.383 5.90475 17.116 5.75821 16.7355C5.65163 16.4485 5.52507 16.028 5.49177 15.247C5.44514 14.3993 5.43848 14.1456 5.43848 12.0096C5.43848 9.87361 5.43848 9.61996 5.4851 8.77224C5.52507 7.99126 5.65163 7.57073 5.76487 7.28371C5.89809 6.90991 6.07794 6.64291 6.36437 6.36256C6.63082 6.08221 6.89726 5.90866 7.27694 5.76181C7.56337 5.65501 7.98302 5.52818 8.76237 5.49481C9.60833 5.44808 9.86146 5.44141 11.993 5.44141ZM7.88965 12.0102C7.88965 9.74074 9.72812 7.89844 11.9929 7.89844C14.2577 7.89844 16.0961 9.74074 16.0961 12.0102C16.0961 14.2797 14.2577 16.1221 11.9929 16.1221C9.72812 16.1221 7.88965 14.2797 7.88965 12.0102ZM11.9933 14.68C10.5279 14.68 9.32889 13.4785 9.32889 12.01C9.32889 10.5415 10.5279 9.34001 11.9933 9.34001C13.4588 9.34001 14.6578 10.5415 14.6578 12.01C14.6578 13.4785 13.4588 14.68 11.9933 14.68ZM16.2626 8.69324C16.7889 8.69324 17.2218 8.27272 17.2218 7.73872L17.2551 7.70534C17.2551 7.17802 16.8222 6.74414 16.2893 6.74414C15.7564 6.74414 15.3301 7.19804 15.3301 7.73204C15.3301 8.26604 15.7297 8.69324 16.2626 8.69324Z" fill="white"/>
</g>
</svg>
