<svg width="19" height="19" viewBox="0 0 19 19" fill="none" xmlns="http://www.w3.org/2000/svg">
<path id="Soft Star" d="M9.29988 0.307202C9.33522 0.00957833 9.76709 0.00957833 9.80244 0.307202L10.0987 2.804C10.4812 6.02804 13.0231 8.56995 16.2472 8.95249L18.744 9.24874C19.0416 9.28409 19.0416 9.71596 18.744 9.75131L16.2472 10.0476C13.0231 10.4301 10.4812 12.972 10.0987 16.196L9.80244 18.6928C9.76709 18.9905 9.33522 18.9905 9.29988 18.6928L9.00362 16.196C8.62108 12.972 6.07917 10.4301 2.85513 10.0476L0.358335 9.75131C0.0607105 9.71596 0.0607105 9.28409 0.358335 9.24874L2.85513 8.95249C6.07917 8.56995 8.62108 6.02804 9.00362 2.804L9.29988 0.307202Z" fill="white"/>
</svg>
