<svg width="24" height="24" viewBox="0 0 24 24" fill="none" xmlns="http://www.w3.org/2000/svg">
<g id="social">
<path id="youtube" fill-rule="evenodd" clip-rule="evenodd" d="M10.0508 15.1616V9.42383L15.0195 12.2929L10.0508 15.1616ZM21.1264 7.69C20.9064 6.86726 20.2584 6.21911 19.4355 5.99917C17.944 5.59961 11.9632 5.59961 11.9632 5.59961C11.9632 5.59961 5.98246 5.59961 4.49094 5.99917C3.66804 6.21911 3.02005 6.86726 2.80011 7.69C2.40039 9.18167 2.40039 12.2935 2.40039 12.2935C2.40039 12.2935 2.40039 15.4055 2.80011 16.897C3.02005 17.7197 3.66804 18.368 4.49094 18.5878C5.98246 18.9875 11.9632 18.9875 11.9632 18.9875C11.9632 18.9875 17.944 18.9875 19.4355 18.5878C20.2584 18.368 20.9064 17.7197 21.1264 16.897C21.5261 15.4055 21.5261 12.2935 21.5261 12.2935C21.5261 12.2935 21.5261 9.18167 21.1264 7.69Z" fill="white"/>
</g>
</svg>
